<?xml version="1.0" encoding="utf-8"?>
<!-- Generator: Adobe Illustrator 22.0.1, SVG Export Plug-In . SVG Version: 6.00 Build 0)  -->
<svg version="1.1" id="Layer_2_1_" xmlns="http://www.w3.org/2000/svg" xmlns:xlink="http://www.w3.org/1999/xlink" x="0px" y="0px"
	 viewBox="0 0 64 74.5" style="enable-background:new 0 0 64 74.5;" xml:space="preserve">
<style type="text/css">
	.st0{enable-background:new    ;}
</style>
<title>logo final</title>
<g class="st0">
	<path d="M3.6,70.3v-8.2c0-1.8,1.1-2.9,2.7-2.9c1.6,0,2.8,1.2,2.8,2.9v8.2c0,0.1-0.1,0.2-0.2,0.2h-1c-0.1,0-0.2-0.1-0.2-0.2v-3.6
		H5.1v3.6c0,0.1-0.1,0.2-0.2,0.2h-1C3.7,70.5,3.6,70.5,3.6,70.3z M7.6,65.4v-3.4c0-1-0.5-1.5-1.3-1.5c-0.8,0-1.3,0.6-1.3,1.5v3.4
		H7.6z"/>
	<path d="M10.8,70.3v-8.2c0-1.7,1.1-3,2.7-3c1.6,0,2.8,1.2,2.8,3v1.3c0,1.2-0.6,2.1-1.4,2.6l1.7,4.3c0,0.1-0.1,0.2-0.2,0.2h-1.1
		c-0.1,0-0.2-0.1-0.2-0.2l-1.5-4h-1.3v4c0,0.1-0.1,0.2-0.2,0.2h-1C10.9,70.5,10.8,70.5,10.8,70.3z M13.5,65c0.8,0,1.4-0.6,1.4-1.6
		v-1.4c0-0.9-0.5-1.5-1.3-1.5c-0.8,0-1.3,0.6-1.3,1.5V65H13.5z"/>
	<path d="M22.6,59.6v0.9c0,0.1-0.1,0.2-0.2,0.2h-1.7v9.6c0,0.1-0.1,0.2-0.2,0.2h-1c-0.1,0-0.2-0.1-0.2-0.2v-9.6h-1.7
		c-0.1,0-0.2-0.1-0.2-0.2v-0.9c0-0.1,0.1-0.2,0.2-0.2h4.9C22.5,59.3,22.6,59.4,22.6,59.6z"/>
	<path d="M27,67.8v-5.7c0-1.7,1.1-2.9,2.8-2.9c1.6,0,2.7,1.2,2.8,2.9c0,0.1-0.1,0.2-0.2,0.2h-1c-0.1,0-0.2-0.1-0.2-0.2
		c0-1-0.5-1.6-1.3-1.6c-0.8,0-1.3,0.6-1.3,1.5v5.8c0,0.9,0.6,1.5,1.4,1.5c0.8,0,1.4-0.6,1.4-1.4v-2.2h-1.1c-0.1,0-0.2-0.1-0.2-0.2
		v-0.8c0-0.1,0.1-0.2,0.2-0.2H32c0.4,0,0.7,0.2,0.7,0.7v2.7c0,1.6-1.2,2.9-2.8,2.9S27,69.5,27,67.8z"/>
</g>
<g class="st0">
	<path d="M34,70.3v-8.2c0-1.7,1.1-3,2.7-3c1.6,0,2.8,1.2,2.8,3v1.3c0,1.2-0.6,2.1-1.4,2.6l1.7,4.3c0,0.1-0.1,0.2-0.2,0.2h-1.1
		c-0.1,0-0.2-0.1-0.2-0.2l-1.5-4h-1.3v4c0,0.1-0.1,0.2-0.2,0.2h-1C34.1,70.5,34,70.5,34,70.3z M36.7,65c0.8,0,1.4-0.6,1.4-1.6v-1.4
		c0-0.9-0.5-1.5-1.3-1.5c-0.8,0-1.3,0.6-1.3,1.5V65H36.7z"/>
</g>
<g class="st0">
	<path d="M40.8,67.7v-5.5c0-1.8,1.2-3,2.8-3c1.7,0,2.8,1.2,2.8,2.9v5.7c0,1.7-1.2,2.9-2.8,2.9C42,70.7,40.8,69.5,40.8,67.7z
		 M45,67.9V62c0-0.9-0.5-1.5-1.4-1.5s-1.4,0.6-1.4,1.6v5.6c0,1,0.6,1.6,1.4,1.6S45,68.8,45,67.9z"/>
</g>
<g class="st0">
	<path d="M49.3,59.3c0.1,0,0.2,0.1,0.2,0.2v8.3c0,0.9,0.5,1.5,1.3,1.5c0.8,0,1.3-0.6,1.3-1.5v-8.3c0-0.1,0.1-0.2,0.2-0.2h1
		c0.1,0,0.2,0.1,0.2,0.2v8.2c0,1.7-1.1,2.9-2.8,2.9c-1.7,0-2.7-1.2-2.7-2.9v-8.2c0-0.1,0.1-0.2,0.2-0.2H49.3z"/>
</g>
<g class="st0">
	<path d="M55.3,70.3v-8.2c0-1.7,1-3,2.7-3c1.7,0,2.8,1.2,2.8,3v1.6c0,1.6-1.1,2.8-2.7,2.8h-1.3v3.8c0,0.1-0.1,0.2-0.2,0.2h-1
		C55.4,70.5,55.3,70.5,55.3,70.3z M57.9,65.2c0.8,0,1.3-0.5,1.3-1.4v-1.7c0-0.9-0.5-1.5-1.3-1.5s-1.3,0.6-1.3,1.5v3.1H57.9z"/>
</g>
<path d="M63.2,28.9c-0.1,0.2-0.2,0.4-0.3,0.6c-0.8,1.4-1.6,2.8-2.4,4.2l-2.4,4.2l-2.7,4.7c-1.2,2.1-2.5,4.3-3.7,6.4L49,53.6v0.2
	c-0.1,0.3-0.3,0.5-0.6,0.5c-0.3,0.1-0.6,0.2-0.9,0.2c-0.3,0-0.7,0-1,0c-0.3,0-0.6,0-0.9-0.1c-0.5-0.1-1-0.4-1.3-0.9L43.9,53
	c-0.1-0.1-0.1-0.2,0-0.3l0.8-1.4l2.2-3.9l1.8-3.3c0.7-1.3,1.4-2.5,2.1-3.8c1-1.8,2-3.5,3-5.3c1.2-2,2.3-4,3.5-6.1
	c0.3-0.5,0.6-1,0.9-1.6c0.2-0.3,0.5-0.5,0.8-0.6c0.3-0.1,0.5-0.1,0.8-0.1c0.6,0,1.3,0,1.9,0.1c0.7,0.1,1.3,0.6,1.5,1.3l0,0
	L63.2,28.9z"/>
<path d="M0.8,27.4c0,0,0.1-0.1,0.1-0.1c0.1-0.2,0.2-0.3,0.4-0.4c0.2-0.1,0.4-0.2,0.7-0.2c0.6,0,1.2,0,1.8,0c0.3,0,0.7,0.1,1,0.2
	c0.3,0.2,0.6,0.4,0.8,0.7l2.7,4.7l2.6,4.5c0.8,1.4,1.6,2.7,2.3,4.1l2.5,4.4l2.4,4.1l2.1,3.9c0.2,0.3,0.1,0.8-0.2,1c0,0,0,0,0,0
	c-0.1,0.1-0.3,0.2-0.4,0.2c-0.3,0.1-0.6,0.1-0.9,0.1c-0.4,0-0.8,0-1.2,0c-0.3,0-0.7-0.1-1-0.2c-0.4-0.1-0.7-0.4-0.9-0.8
	c-0.4-0.7-0.8-1.4-1.2-2.1L12,47.4L9.4,43l-3.6-6.2l-3.2-5.6l-1.5-2.7c-0.1-0.2-0.2-0.3-0.2-0.5c0-0.1,0-0.1-0.1-0.2L0.8,27.4z"/>
<path d="M17.3,1.7c0.4,0,0.8,0,1.2,0.1c0.4,0.1,0.8,0.2,1.1,0.5c0.1,0.1,0.2,0.3,0.3,0.4c0.4,0.5,0.7,1.1,1,1.7L24,9.8l3.8,6.6
	l4.4,7.7l3.9,6.7l4.3,7.4c0.8,1.4,1.6,2.8,2.5,4.2c0.4,0.7,0.8,1.5,1.2,2.2c0.1,0.1,0.1,0.2,0,0.3l-1.2,2.2c-0.3,0.6-0.7,1.2-1,1.8
	c0,0.1,0,0.1-0.1,0.1S41.6,49,41.6,49L39,44.4c-1.1-1.9-2.2-3.7-3.2-5.6c-1.3-2.2-2.6-4.5-3.9-6.7l-4.3-7.4l-4-6.9
	c-0.8-1.4-1.6-2.8-2.4-4.2s-1.7-2.9-2.5-4.4S17,6.2,16.2,4.6l-1-1.7c-0.1-0.1-0.1-0.2-0.1-0.3c0-0.3,0.2-0.6,0.6-0.8
	c0.3-0.1,0.6-0.2,0.9-0.2C16.8,1.7,17,1.7,17.3,1.7z"/>
<path d="M43.9,20.1V4.1c0-0.3,0-0.5,0-0.8c0-0.2,0-0.5,0.1-0.7c0-0.3,0.3-0.6,0.6-0.7c0.2-0.1,0.4-0.1,0.7-0.1c0.4,0,0.9,0,1.3,0
	c0.3,0,0.6,0,0.8,0.1c0.8,0.1,1.4,0.8,1.6,1.6C49,3.8,49,4.2,49,4.5c0,0.1,0,0.2,0,0.3c0,0.1,0,0.1,0,0.2v30.8c0,0.2,0,0.3-0.1,0.5
	c-0.8,1.5-1.7,3-2.5,4.4c0,0,0,0.1-0.1,0.1s-0.1-0.1-0.1-0.1L44,36.9c-0.1-0.1-0.1-0.2-0.1-0.3L43.9,20.1L43.9,20.1z"/>
<path d="M15.2,10.4c0.1,0,0.1,0.1,0.1,0.1l3.3,5.8l1.6,2.8c0.1,0.1,0.1,0.2,0.1,0.4c0,0.8,0,1.6,0,2.5v23.5c0,0.1,0,0.2,0,0.3
	c-0.1,0-0.1-0.1-0.1-0.2L19,43.6l-1.7-3c-0.6-1.1-1.2-2.2-1.9-3.3c-0.2-0.3-0.2-0.6-0.2-0.9c0-8.5,0-17.1,0-25.6
	C15.1,10.6,15.1,10.5,15.2,10.4z"/>
</svg>
